<?xml version="1.0" encoding="utf-8"?>
<!-- Generator: Adobe Illustrator 22.0.0, SVG Export Plug-In . SVG Version: 6.00 Build 0)  -->
<svg version="1.1" id="Layer_1" xmlns="http://www.w3.org/2000/svg" xmlns:xlink="http://www.w3.org/1999/xlink" x="0px" y="0px"
	 viewBox="0 0 660.1 498.1" enable-background="new 0 0 660.1 498.1" xml:space="preserve">
<g>
	<rect fill="#29ABE2" width="70" height="500"/>
</g>
<g>
	<polygon fill="#29ABE2" points="664.5,97.5 664.5,167.5 499.5,167.5 499.5,500 429.5,500 429.5,0 499.5,0 499.5,97.5 	"/>
</g>
<g>
	<g>
		<path fill="#29ABE2" d="M250,0C111.9,0,0,111.9,0,250s111.9,250,250,250s250-111.9,250-250S388.1,0,250,0z M377.3,377.3
			c-34,34-79.2,52.7-127.3,52.7c-48.1,0-93.3-18.7-127.3-52.7S70,298.1,70,250c0-48.1,18.7-93.3,52.7-127.3S201.9,70,250,70
			c48.1,0,93.3,18.7,127.3,52.7S430,201.9,430,250C430,298.1,411.3,343.3,377.3,377.3z"/>
	</g>
</g>
</svg>
