<?xml version="1.0" encoding="utf-8"?>
<!-- Generator: Adobe Illustrator 22.0.0, SVG Export Plug-In . SVG Version: 6.00 Build 0)  -->
<svg version="1.1" id="Layer_1" xmlns="http://www.w3.org/2000/svg" xmlns:xlink="http://www.w3.org/1999/xlink" x="0px" y="0px"
	 viewBox="0 0 599.4 500.1" style="enable-background:new 0 0 599.4 500.1;" xml:space="preserve">
<style type="text/css">
	.st0{fill:#FFFFFF;}
</style>
<path class="st0" d="M500,150.1V0.1H400v50c-41.8-31.4-93.7-50-150-50c-56.3,0-108.2,18.6-150,50v-50H0v500h100v-50
	c41.8,31.4,93.7,50,150,50c56.3,0,108.2-18.6,150-50v50h100v-250h100v-100H500z M250,400c-82.8,0-150-67.2-150-150s67.2-150,150-150
	c82.8,0,150,67.2,150,150S332.8,400,250,400z"/>
</svg>
